HIERARCHY
ROOT Hips
{
	OFFSET 0.000000 0.000000 0.000000
	CHANNELS 6 Xposition Yposition Zposition Zrotation Yrotation Xrotation 
	JOINT LHipJoint
	{
		OFFSET 0.000000 0.000000 0.000000
		CHANNELS 3 Zrotation Yrotation Xrotation
		JOINT LeftUpLeg
		{
			OFFSET 1.363060 -1.794630 0.839290
			CHANNELS 3 Zrotation Yrotation Xrotation
			JOINT LeftLeg
			{
				OFFSET 2.448110 -6.726130 0.000000
				CHANNELS 3 Zrotation Yrotation Xrotation
				JOINT LeftFoot
				{
					OFFSET 2.562200 -7.039590 0.000000
					CHANNELS 3 Zrotation Yrotation Xrotation
					JOINT LeftToeBase
					{
						OFFSET 0.157640 -0.433110 2.322550
						CHANNELS 3 Zrotation Yrotation Xrotation
						End Site
						{
							OFFSET 0.000000 0.000000 0.000000
						}
					}
				}
			}
		}
	}
	JOINT RHipJoint
	{
		OFFSET 0.000000 0.000000 0.000000
		CHANNELS 3 Zrotation Yrotation Xrotation
		JOINT RightUpLeg
		{
			OFFSET -1.305520 -1.794630 0.839290
			CHANNELS 3 Zrotation Yrotation Xrotation
			JOINT RightLeg
			{
				OFFSET -2.542530 -6.985550 0.000000
				CHANNELS 3 Zrotation Yrotation Xrotation
				JOINT RightFoot
				{
					OFFSET -2.568260 -7.056230 0.000000
					CHANNELS 3 Zrotation Yrotation Xrotation
					JOINT RightToeBase
					{
						OFFSET -0.164730 -0.452590 2.363150
						CHANNELS 3 Zrotation Yrotation Xrotation
						End Site
						{
							OFFSET 0.000000 0.000000 0.000000
						}
					}
				}
			}
		}
	}
	JOINT LowerBack
	{
		OFFSET 0.000000 0.000000 0.000000
		CHANNELS 3 Zrotation Yrotation Xrotation
		JOINT Spine
		{
			OFFSET 0.028270 2.035590 -0.193380
			CHANNELS 3 Zrotation Yrotation Xrotation
			JOINT Spine1
			{
				OFFSET 0.056720 2.048850 -0.042750
				CHANNELS 3 Zrotation Yrotation Xrotation
				JOINT Neck
				{
					OFFSET 0.000000 0.000000 0.000000
					CHANNELS 3 Zrotation Yrotation Xrotation
					JOINT Neck1
					{
						OFFSET -0.054170 1.746240 0.172020
						CHANNELS 3 Zrotation Yrotation Xrotation
						JOINT Head
						{
							OFFSET 0.104070 1.761360 -0.123970
							CHANNELS 3 Zrotation Yrotation Xrotation
							End Site
							{
								OFFSET 0.000000 0.000000 0.000000
							}
						}
					}
				}
				JOINT LeftShoulder
				{
					OFFSET 0.000000 0.000000 0.000000
					CHANNELS 3 Zrotation Yrotation Xrotation
					JOINT LeftArm
					{
						OFFSET 3.362410 1.200890 -0.311210
						CHANNELS 3 Zrotation Yrotation Xrotation
						JOINT LeftForeArm
						{
							OFFSET 4.983000 -0.000000 -0.000000
							CHANNELS 3 Zrotation Yrotation Xrotation
							JOINT LeftHand
							{
								OFFSET 3.483560 -0.000000 -0.000000
								CHANNELS 3 Zrotation Yrotation Xrotation
								JOINT LeftFingerBase
								{
									OFFSET 0.000000 0.000000 0.000000
									CHANNELS 3 Zrotation Yrotation Xrotation
									JOINT LeftHandIndex1
									{
										OFFSET 0.715260 -0.000000 -0.000000
										CHANNELS 3 Zrotation Yrotation Xrotation
										End Site
										{
											OFFSET 0.000000 0.000000 0.000000
										}
									}
								}
								JOINT LThumb
								{
									OFFSET 0.000000 0.000000 0.000000
									CHANNELS 3 Zrotation Yrotation Xrotation
									End Site
									{
										OFFSET 0.000000 0.000000 0.000000
									}
								}
							}
						}
					}
				}
				JOINT RightShoulder
				{
					OFFSET 0.000000 0.000000 0.000000
					CHANNELS 3 Zrotation Yrotation Xrotation
					JOINT RightArm
					{
						OFFSET -3.136600 1.374050 -0.404650
						CHANNELS 3 Zrotation Yrotation Xrotation
						JOINT RightForeArm
						{
							OFFSET -5.241900 -0.000000 -0.000000
							CHANNELS 3 Zrotation Yrotation Xrotation
							JOINT RightHand
							{
								OFFSET -3.444170 -0.000000 -0.000000
								CHANNELS 3 Zrotation Yrotation Xrotation
								JOINT RightFingerBase
								{
									OFFSET 0.000000 0.000000 0.000000
									CHANNELS 3 Zrotation Yrotation Xrotation
									JOINT RightHandIndex1
									{
										OFFSET -0.622530 -0.000000 -0.000000
										CHANNELS 3 Zrotation Yrotation Xrotation
										End Site
										{
											OFFSET 0.000000 0.000000 0.000000
										}
									}
								}
								JOINT RThumb
								{
									OFFSET 0.000000 0.000000 0.000000
									CHANNELS 3 Zrotation Yrotation Xrotation
									End Site
									{
										OFFSET 0.000000 0.000000 0.000000
									}
								}
							}
						}
					}
				}
			}
		}
	}
}
MOTION
Frames: 7
Frame Time: 0.008333
0.234154 17.460003 3.031134 7.746621 6.572455 3.959291 -1.501318 -0.806682 0.169774 -29.570118 -1.071231 6.975617 0.935773 6.100766 16.298831 1.369131 -11.150970 -1.924527 0.021079 -0.930601 -2.557804 0.795932 0.350316 -0.213350 7.594878 8.631188 -31.331006 -2.753050 -8.708210 25.686596 -0.071530 -8.572004 -16.872924 -0.641655 -5.123158 14.260405 -9.171446 -0.885732 5.157549 -0.672782 -2.048573 0.162479 9.554189 -0.665076 -2.377455 -12.055663 -3.250624 -14.622869 2.977886 -2.823851 24.672778 4.218418 -2.785233 13.318422 -1.114487 3.118184 -0.425718 -86.305142 4.572407 23.094580 21.257746 -33.188599 -5.548879 0.719149 1.258378 5.307949 0.089787 35.016403 -0.287730 -7.125000 0.000000 0.000000 -37.643366 59.495726 -14.575228 0.510881 -3.960569 -1.573279 86.345359 -5.643524 -0.093907 -14.707270 22.450845 -2.876499 0.282574 0.538800 -10.436200 -11.061619 18.301736 -3.537813 7.125000 0.000000 0.000000 10.880797 -12.095358 8.517933
0.229060 17.460479 3.112215 7.768099 6.725108 4.075192 -1.500068 -0.796375 0.174097 -29.505497 -1.023905 7.373426 0.896218 5.941852 15.850418 1.363898 -11.245922 -1.664012 0.015837 -0.804603 -2.211211 0.784812 0.340844 -0.214006 7.355397 9.130015 -31.113746 -2.590668 -8.363893 24.598751 -0.072333 -8.920652 -17.361508 -0.608166 -4.990073 13.880614 -9.217892 -0.930359 5.089112 -0.677027 -2.105635 0.152738 9.575784 -0.693667 -2.345137 -12.010855 -3.277185 -14.674757 2.956905 -2.867586 24.695707 4.194053 -2.801298 13.343467 -1.113674 3.120387 -0.427495 -86.188937 4.433380 23.264538 21.334337 -33.286021 -5.590153 0.716594 1.261809 5.242448 0.048102 35.070644 -0.310590 -7.125000 0.000000 0.000000 -37.735098 59.527177 -14.646284 0.514648 -3.965328 -1.573770 86.407369 -5.674445 -0.204561 -14.693881 22.434320 -2.873713 0.280040 0.538729 -10.387941 -10.983200 18.197956 -3.492238 7.125000 0.000000 0.000000 10.933992 -12.205873 8.535600
0.227566 17.460851 3.201040 7.825107 6.956294 4.132499 -1.498292 -0.789182 0.176422 -29.498216 -1.010522 7.871684 0.862136 5.794978 15.439068 1.358998 -11.363282 -1.388161 0.010147 -0.577308 -1.586423 0.775090 0.339252 -0.220092 7.138098 9.323017 -30.873950 -2.447936 -8.055598 23.617361 -0.089266 -9.089054 -17.780438 -0.545613 -4.715938 13.103066 -9.265146 -1.005560 4.999045 -0.686264 -2.195870 0.196250 9.581512 -0.752831 -2.193797 -11.956750 -3.310356 -14.899358 2.916677 -2.905095 24.766721 4.159381 -2.815656 13.425870 -1.115319 3.120559 -0.427659 -86.092709 4.226327 23.404595 21.429147 -33.412028 -5.642990 0.717613 1.262033 5.109366 0.132151 35.087068 -0.266340 -7.125000 0.000000 0.000000 -37.677138 59.560100 -14.649824 0.523416 -3.977299 -1.574587 86.452412 -5.611749 -0.313739 -14.667594 22.399982 -2.864772 0.278634 0.537518 -10.307641 -10.913509 18.122089 -3.455284 7.125000 0.000000 0.000000 10.981127 -12.286685 8.555124
0.230660 17.461088 3.299737 7.927397 7.287573 4.115127 -1.495844 -0.785958 0.176202 -29.564017 -1.040399 8.497966 0.835029 5.663449 15.074955 1.354523 -11.509201 -1.092764 0.003886 -0.220912 -0.607073 0.767151 0.347701 -0.233097 6.949070 9.126241 -30.605431 -2.330250 -7.793212 22.771648 -0.126756 -9.027731 -18.110593 -0.446018 -4.262034 11.818572 -9.313428 -1.119729 4.881412 -0.701862 -2.328385 0.307635 9.567017 -0.850960 -1.890760 -11.890797 -3.351949 -15.344083 2.851921 -2.934669 24.899021 4.111574 -2.827838 13.581378 -1.120097 3.118142 -0.425765 -86.021940 3.932574 23.506543 21.547178 -33.574467 -5.710565 0.723188 1.258170 4.890154 0.376450 35.055294 -0.136556 -7.125000 0.000000 0.000000 -37.428393 59.594900 -14.567313 0.538560 -3.998463 -1.575821 86.475832 -5.429737 -0.421035 -14.624866 22.342942 -2.847985 0.278666 0.534856 -10.186506 -10.854944 18.081797 -3.429317 7.125000 0.000000 0.000000 11.020538 -12.329639 8.577013
0.231570 17.459304 3.395707 8.020727 7.592706 4.099946 -1.493631 -0.781263 0.179108 -29.610656 -1.074047 9.072427 0.813036 5.553468 14.771374 1.350360 -11.639721 -0.827770 0.000258 0.044981 0.123577 0.760918 0.354874 -0.242541 6.775121 8.996385 -30.364831 -2.227398 -7.560999 22.028538 -0.159422 -9.027130 -18.468247 -0.351191 -3.784141 10.472754 -9.370942 -1.222756 4.817348 -0.711954 -2.456441 0.355842 9.572611 -0.930692 -1.736905 -11.883915 -3.379268 -15.524511 2.839538 -2.959446 24.972853 4.099574 -2.839708 13.654243 -1.123916 3.120760 -0.424515 -85.952888 3.812702 23.629636 21.664556 -33.727802 -5.778139 0.727676 1.253086 4.712296 0.618319 34.982392 -0.007361 -7.125000 0.000000 0.000000 -37.138686 59.597372 -14.437195 0.544307 -4.010946 -1.576663 86.484821 -5.424897 -0.498212 -14.587972 22.291758 -2.833118 0.278753 0.533317 -10.129056 -10.818544 18.040362 -3.410162 7.125000 0.000000 0.000000 11.044908 -12.372630 8.586697
0.228904 17.454209 3.487214 8.099394 7.855055 4.088348 -1.491804 -0.774161 0.187132 -29.625943 -1.113865 9.562088 0.799411 5.478747 14.566844 1.346707 -11.745039 -0.612528 0.000937 0.162777 0.447260 0.757478 0.359955 -0.246159 6.625843 8.976031 -30.169917 -2.148819 -7.378159 21.453322 -0.184194 -9.125891 -18.870897 -0.264167 -3.266995 9.026589 -9.443562 -1.307549 4.840943 -0.713035 -2.577199 0.300669 9.611077 -0.980317 -1.827162 -11.973696 -3.383229 -15.272453 2.912859 -2.976371 24.951011 4.146168 -2.851065 13.591875 -1.126166 3.131618 -0.424317 -85.886644 3.977361 23.787331 21.780868 -33.866241 -5.845711 0.730387 1.246004 4.602110 0.856211 34.842190 0.120870 -7.125000 0.000000 0.000000 -36.781950 59.546944 -14.229171 0.534679 -4.009223 -1.576865 86.470197 -5.709974 -0.526106 -14.560623 22.250155 -2.821394 0.278930 0.533619 -10.175818 -10.818414 17.997058 -3.402154 7.125000 0.000000 0.000000 11.044665 -12.415681 8.576408
0.224977 17.447566 3.574971 8.171949 8.099623 4.097184 -1.490125 -0.767521 0.193812 -29.627369 -1.164516 9.995966 0.788937 5.418917 14.403369 1.343452 -11.844974 -0.414587 0.001354 0.237922 0.653751 0.756226 0.363172 -0.248081 6.484708 8.988256 -30.030854 -2.083412 -7.225851 20.978319 -0.206957 -9.233076 -19.263727 -0.192701 -2.817872 7.772730 -9.521368 -1.383882 4.870577 -0.713407 -2.686880 0.256563 9.655309 -1.026379 -1.902246 -12.057463 -3.389252 -15.055021 3.003880 -2.996782 24.906931 4.197406 -2.859048 13.529321 -1.128626 3.142792 -0.424204 -85.821961 4.092111 23.938449 21.907562 -34.018386 -5.919482 0.732068 1.239026 4.505525 1.050500 34.698371 0.225369 -7.125000 0.000000 0.000000 -36.462275 59.483108 -14.026984 0.527911 -4.005401 -1.576109 86.467911 -5.933561 -0.571944 -14.530861 22.203833 -2.808212 0.279096 0.533712 -10.196909 -10.826735 17.952043 -3.396375 7.125000 0.000000 0.000000 11.039066 -12.459707 8.561567
